<?xml version="1.0" encoding="utf-8"?>
<!-- Generator: Adobe Illustrator 25.2.1, SVG Export Plug-In . SVG Version: 6.00 Build 0)  -->
<svg version="1.1" id="Layer_1" xmlns="http://www.w3.org/2000/svg" xmlns:xlink="http://www.w3.org/1999/xlink" x="0px" y="0px"
	 viewBox="0 0 107 58" style="enable-background:new 0 0 107 58;" xml:space="preserve">
<style type="text/css">
	.st0{fill-rule:evenodd;clip-rule:evenodd;fill:#E71802;}
</style>
<path class="st0" d="M49.7,37.9V17.2C49.7,11,48.2,6,38.7,6c-3.8,0-7,1.1-9.5,2.5C27.5,7,25,6,20.9,6c-4,0-7.5,1.2-10,2.8l-1-1.7H0
	v30.8h14.1V17.5c0.7-0.4,1.5-0.7,2.5-0.7c0.7,0,1.2,0.4,1.2,1.1v20h14.1V17.5c0.7-0.4,1.5-0.7,2.5-0.7c0.7,0,1.2,0.4,1.2,1.1v20
	H49.7z"/>
<path class="st0" d="M81.6,37.9V17.5C81.6,10.3,79.2,6,67.8,6c-5.5,0-11.4,1.1-14.4,2.3l0.3,9.8c2.9-1.2,7.3-2.4,11.4-2.4
	c3.1,0,3.7,0.8,3.7,1.8v1l-5.3,0.4c-8.4,0.6-12.1,2.7-12.1,10.1c0,6.5,3.1,10,10.2,10c4.7,0,7.3-1.5,9-2.8l1,1.7H81.6z M68.8,29.2
	c-0.6,0.6-1.8,1-3.1,1c-1.3,0-2.6-0.7-2.6-2.7c0-2,1.3-2.9,2.9-3.1l2.8-0.3V29.2z"/>
<path class="st0" d="M87.6,38.2h13.3V24.8H87.6V38.2z"/>
<path class="st0" d="M38.4,45.9c-0.6,0-1.2,0.2-1.8,0.6L36.4,46h-0.7v5.6h1.3v-4.4c0.3-0.2,0.7-0.3,1.3-0.3c0.6,0,0.9,0.3,0.9,0.8
	v3.9h1.3v-4C40.3,46.6,39.8,45.9,38.4,45.9"/>
<path class="st0" d="M4,49l-2.3-5.8H0.1v8.5h1.3l-0.1-6.4l2.1,5.2h1.2l2.1-5.2l-0.1,6.4h1.3v-8.5H6.2L4,49z"/>
<path class="st0" d="M23,46h-1.6l-2,2.2v-5h-1.3v8.5h1.3v-2l0.5-0.6l1.8,2.5h1.6l-2.5-3.3L23,46z"/>
<path class="st0" d="M33.7,45.2c0.4,0,0.8-0.4,0.8-0.8c0-0.5-0.4-0.8-0.8-0.8c-0.4,0-0.8,0.4-0.8,0.8C32.9,44.8,33.3,45.2,33.7,45.2
	"/>
<path class="st0" d="M15.2,46.5L15,46h-0.7v5.6h1.3v-4.4c0.3-0.2,0.8-0.3,1.4-0.3c0.3,0,0.5,0,0.6,0.1v-1.1c-0.2,0-0.4-0.1-0.6-0.1
	C16.3,45.9,15.6,46.1,15.2,46.5"/>
<path class="st0" d="M11,45.9c-0.7,0-1.4,0.1-1.8,0.3v1.1c0.4-0.2,1-0.3,1.8-0.3c0.8,0,1.1,0.2,1.1,0.8V48l-1.3,0.1
	c-1.3,0.1-2.1,0.6-2.1,1.8c0,0.9,0.5,1.8,1.9,1.8c0.6,0,1.2-0.2,1.7-0.6l0.2,0.5h0.7v-3.8C13.3,46.7,12.9,45.9,11,45.9L11,45.9z
	 M12,50.4c-0.3,0.2-0.7,0.4-1.2,0.4c-0.7,0-0.9-0.4-0.9-0.8c0-0.6,0.3-0.8,0.9-0.9l1.2-0.1V50.4z"/>
<path class="st0" d="M30.7,44.3l-1.3,0.4V46l-1,0.3v0.8h1V50c0,1.2,0.7,1.8,2,1.8c0.2,0,0.5,0,0.7-0.1v-1c-0.1,0-0.3,0-0.5,0
	c-0.6,0-0.9-0.3-0.9-0.8v-2.8h1.6V46h-1.6V44.3z"/>
<path class="st0" d="M25.8,45.9c-1.8,0-2.5,1.1-2.5,3c0,1.8,0.7,3,2.5,3c0.6,0,1.3-0.1,2-0.3v-1.1c-0.5,0.2-1.1,0.3-1.8,0.3
	c-1.1,0-1.4-0.6-1.5-1.4H28c0-0.2,0-0.4,0-0.6C28.1,47.2,27.8,45.9,25.8,45.9L25.8,45.9z M24.6,48.4c0-0.8,0.3-1.4,1.2-1.4
	c1,0,1,0.7,1,1.4H24.6z"/>
<path class="st0" d="M34.3,50.3V46h-1.3v4.3c0,1,0.5,1.5,1.5,1.5c0.1,0,0.2,0,0.2,0v-1C34.5,50.7,34.3,50.6,34.3,50.3"/>
<path class="st0" d="M85.6,44.2l-0.8,0.2V46l-1.1,0.3v0.3h1.1v3.6c0,1.1,0.9,1.5,1.8,1.5c0.1,0,0.4,0,0.5,0v-0.6c-0.1,0-0.3,0-0.4,0
	c-0.7,0-1.1-0.3-1.1-1v-3.5h1.7V46h-1.7V44.2z"/>
<path class="st0" d="M89.4,44.3c0-0.3-0.2-0.6-0.6-0.6c-0.3,0-0.6,0.2-0.6,0.6c0,0.3,0.2,0.6,0.6,0.6C89.1,44.9,89.4,44.6,89.4,44.3
	"/>
<path class="st0" d="M80.9,45.9c-0.5,0-1.2,0.1-1.7,0.3v0.7c0.4-0.1,0.9-0.3,1.7-0.3c1,0,1.3,0.4,1.3,1.2v0.3l-1.5,0.1
	c-1.5,0.1-2,0.8-2,1.8c0,0.9,0.5,1.8,2,1.8c0.6,0,1.2-0.2,1.7-0.6l0.2,0.5H83v-3.9C83,46.7,82.6,45.9,80.9,45.9L80.9,45.9z
	 M82.2,50.6c-0.5,0.3-0.9,0.5-1.5,0.5c-1.1,0-1.2-0.6-1.2-1.1c0-0.7,0.3-1.1,1.1-1.1l1.5-0.1V50.6z"/>
<path class="st0" d="M98.7,45.9c-0.6,0-1.2,0.2-1.7,0.6L96.9,46h-0.4v5.6h0.8V47c0.4-0.2,0.8-0.4,1.5-0.4c0.7,0,1.1,0.2,1.1,1v4.1
	h0.8v-4.1C100.6,46.5,100.1,45.9,98.7,45.9"/>
<path class="st0" d="M77.4,50.6V46h-0.8v4.5c0,0.9,0.4,1.2,1.2,1.2v-0.6C77.5,51.1,77.4,51,77.4,50.6"/>
<path class="st0" d="M92.9,45.9c-1.9,0-2.4,1.2-2.4,2.9c0,1.7,0.4,2.9,2.4,2.9c1.9,0,2.4-1.2,2.4-2.9C95.3,47.1,94.9,45.9,92.9,45.9
	 M92.9,51.1c-1.5,0-1.6-1-1.6-2.2c0-1.3,0.1-2.2,1.6-2.2c1.5,0,1.6,1,1.6,2.2C94.5,50.1,94.4,51.1,92.9,51.1"/>
<path class="st0" d="M89.2,50.6V46h-0.8v4.5c0,0.9,0.4,1.2,1.2,1.2v-0.6C89.3,51.1,89.2,51,89.2,50.6"/>
<path class="st0" d="M51.6,43.1l-3,8.6h0.9l0.8-2.4h3.2l0.8,2.4h0.9l-3-8.6H51.6z M50.5,48.6l1.4-4.3l1.4,4.3H50.5z"/>
<path class="st0" d="M62.7,48.4c-1.1-0.1-1.3-0.3-1.3-0.8c0-0.6,0.2-1,1.3-1c0.8,0,1.2,0.1,1.6,0.3v-0.7c-0.5-0.2-1.1-0.3-1.6-0.3
	c-1.6,0-2.1,0.9-2.1,1.7c0,0.8,0.3,1.4,2,1.5c1.1,0.1,1.3,0.5,1.3,1c0,0.5-0.3,1-1.5,1c-0.8,0-1.3-0.1-1.7-0.3v0.7
	c0.4,0.1,1.1,0.3,1.7,0.3c1.7,0,2.3-0.9,2.3-1.7C64.7,49.1,64.3,48.6,62.7,48.4"/>
<path class="st0" d="M57.8,48.4c-1.1-0.1-1.3-0.3-1.3-0.8c0-0.6,0.2-1,1.3-1c0.8,0,1.2,0.1,1.6,0.3v-0.7c-0.5-0.2-1.1-0.3-1.6-0.3
	c-1.6,0-2.1,0.9-2.1,1.7c0,0.8,0.3,1.4,2,1.5c1.1,0.1,1.3,0.5,1.3,1c0,0.5-0.3,1-1.5,1c-0.8,0-1.3-0.1-1.7-0.3v0.7
	c0.4,0.1,1.1,0.3,1.7,0.3c1.7,0,2.3-0.9,2.3-1.7C59.8,49.1,59.4,48.6,57.8,48.4"/>
<path class="st0" d="M77.6,44.3c0-0.3-0.2-0.6-0.6-0.6c-0.3,0-0.6,0.2-0.6,0.6c0,0.3,0.2,0.6,0.6,0.6C77.3,44.9,77.6,44.6,77.6,44.3
	"/>
<path class="st0" d="M45,51l-2-0.2c-0.2,0-0.3-0.1-0.3-0.3c0-0.1,0.1-0.2,0.2-0.3c0.2,0,0.4,0,0.7,0c1.7,0,2.3-0.9,2.3-2.1
	c0-0.4-0.1-0.7-0.2-1l0.8-0.2V46h-1.9c-0.3-0.1-0.6-0.1-1-0.1c-1.7,0-2.3,0.9-2.3,2.1c0,0.8,0.3,1.5,0.9,1.8
	c-0.3,0.2-0.5,0.5-0.5,0.9c0,0.3,0.2,0.6,0.4,0.8v0c-0.6,0.2-1.2,0.6-1.2,1.4c0,1.2,1.1,1.6,2.6,1.6c1.6,0,3.2-0.6,3.2-2
	C46.5,51.7,46.1,51.2,45,51 M43.4,46.9c0.9,0,1.2,0.5,1.2,1.1c0,0.6-0.2,1.1-1.2,1.1c-0.9,0-1.2-0.5-1.2-1.1
	C42.3,47.4,42.5,46.9,43.4,46.9 M43.4,53.6c-1,0-1.5-0.2-1.5-0.9c0-0.5,0.5-0.8,1.1-0.9l1.6,0.2c0.5,0.1,0.7,0.2,0.7,0.6
	C45.3,53.3,44.4,53.6,43.4,53.6"/>
<path class="st0" d="M71.4,48.8c0,1.6,0.5,2.9,2.4,2.9c0.5,0,1.2-0.1,1.7-0.3v-0.7c-0.4,0.1-0.9,0.3-1.7,0.3c-1.4,0-1.6-1.1-1.6-2.2
	c0-1.1,0.2-2.2,1.6-2.2c0.8,0,1.2,0.1,1.7,0.3v-0.7c-0.5-0.2-1.1-0.3-1.7-0.3C71.9,45.9,71.4,47.2,71.4,48.8"/>
<path class="st0" d="M68,45.9c-1.9,0-2.4,1.2-2.4,2.9c0,1.7,0.4,2.9,2.4,2.9c1.9,0,2.4-1.2,2.4-2.9C70.4,47.1,70,45.9,68,45.9
	 M68,51.1c-1.5,0-1.6-1-1.6-2.2c0-1.3,0.1-2.2,1.6-2.2c1.5,0,1.6,1,1.6,2.2C69.6,50.1,69.5,51.1,68,51.1"/>
</svg>
